<?xml version="1.0" encoding="UTF-8"?>
<svg viewBox="0 0 845 280" role="img" lang="en" aria-labelledby="archify-diagram-title archify-diagram-description" data-preset="classic" data-quality-profile="showcase">
        <title id="archify-diagram-title">공급업체에서 고객까지의 물류 흐름</title>
        <desc id="archify-diagram-description">A workflow diagram generated by Archify.</desc>
        <!-- Definitions -->
        <defs>
          <marker id="arrowhead" markerWidth="10" markerHeight="7" refX="9" refY="3.5" orient="auto">
            <polygon points="0 0, 10 3.5, 0 7" class="m-default" />
          </marker>
          <marker id="arrowhead-emphasis" markerWidth="10" markerHeight="7" refX="9" refY="3.5" orient="auto">
            <polygon points="0 0, 10 3.5, 0 7" class="m-emphasis" />
          </marker>
          <marker id="arrowhead-security" markerWidth="10" markerHeight="7" refX="9" refY="3.5" orient="auto">
            <polygon points="0 0, 10 3.5, 0 7" class="m-security" />
          </marker>
          <marker id="arrowhead-dashed" markerWidth="10" markerHeight="7" refX="9" refY="3.5" orient="auto">
            <polygon points="0 0, 10 3.5, 0 7" class="m-dashed" />
          </marker>
          <pattern id="grid" width="40" height="40" patternUnits="userSpaceOnUse">
            <path d="M 40 0 L 0 0 0 40" class="c-grid" stroke-width="0.5"/>
          </pattern>
        </defs>

        <!-- Background Grid -->
        <rect width="100%" height="100%" fill="url(#grid)" />

        <!-- Swimlanes -->
        <rect data-graph-role="structural-frame" data-composition-frame-kind="lane" data-composition-frame-id="lane-0" x="40" y="52" width="789" height="104" rx="10" class="c-lane" stroke-width="1"/>
        <text x="54" y="74" class="t-dim" font-size="10" font-weight="600">01 / 센터 간 물류 흐름</text>

        <!-- Phase headers -->


        <!-- Workflow groups -->


        <!-- Edge paths -->
        <path data-edge-from="dc" data-edge-to="ppc" data-edge-label="재고 이관" data-edge-key="0" data-composition-points="270,119;331.2,119" d="M 270 119 L 331.2 119" class="a-emphasis" stroke-width="1.8" marker-end="url(#arrowhead-emphasis)"/>
        <path data-edge-from="ppc" data-edge-to="customer" data-edge-label="주문 출고" data-edge-key="1" data-composition-points="423.2,119;484.4,119" d="M 423.2 119 L 484.4 119" class="a-default" stroke-width="1.4" marker-end="url(#arrowhead)"/>
        <path data-edge-from="supplier" data-edge-to="dc" data-edge-label="입고" data-edge-key="2" data-composition-points="140,119;178,119" d="M 140 119 L 178 119" class="a-default" stroke-width="1.4" marker-end="url(#arrowhead)"/>

        <!-- Nodes -->
        <g id="node-supplier" data-node-id="supplier" data-node-label="공급업체" tabindex="0" role="button" aria-label="Focus 공급업체, 센터 간 물류 흐름" aria-pressed="false" data-node-kind="external" data-node-context="센터 간 물류 흐름">
          <title>공급업체 · 센터 간 물류 흐름</title>
          <rect x="48" y="93" width="92" height="52" rx="6" class="c-mask"/>
          <rect x="48" y="93" width="92" height="52" rx="6" class="c-external" stroke-width="1.5"/>
          <g aria-hidden="true" data-semantic-sigil="external" class="semantic-sigil s-external" transform="translate(54 99) scale(0.6875)">
            <rect x="2.5" y="5" width="8.5" height="8" rx="1.5"/>
            <path d="M8 2.5h5.5V8M13.5 2.5 7.5 8.5"/>
          </g>
          <text data-node-label="" x="94" y="114" class="t-primary" font-size="11" font-weight="600" text-anchor="middle">공급업체</text>
        </g>

        <g id="node-dc" data-node-id="dc" data-node-label="DC" tabindex="0" role="button" aria-label="Focus DC, 중앙물류기지, 센터 간 물류 흐름" aria-pressed="false" data-node-kind="database" data-node-sublabel="중앙물류기지" data-node-context="센터 간 물류 흐름">
          <title>DC · 중앙물류기지 · 센터 간 물류 흐름</title>
          <rect x="178" y="93" width="92" height="52" rx="6" class="c-mask"/>
          <rect x="178" y="93" width="92" height="52" rx="6" class="c-database" stroke-width="1.5"/>
          <g aria-hidden="true" data-semantic-sigil="database" class="semantic-sigil s-database" transform="translate(184 99) scale(0.6875)">
            <ellipse cx="8" cy="4" rx="5" ry="2"/>
            <path d="M3 4v8c0 1.1 2.2 2 5 2s5-.9 5-2V4M3 8c0 1.1 2.2 2 5 2s5-.9 5-2"/>
          </g>
          <text data-node-label="" data-detail-anchor="" x="224" y="114" class="t-primary" font-size="11" font-weight="600" text-anchor="middle">DC</text>
          <text data-detail="context" x="224" y="131" class="t-muted" font-size="8" text-anchor="middle">중앙물류기지</text>
        </g>

        <g id="node-ppc" data-node-id="ppc" data-node-label="PPC" tabindex="0" role="button" aria-label="Focus PPC, 피킹패킹센터, 센터 간 물류 흐름" aria-pressed="false" data-node-kind="backend" data-node-sublabel="피킹패킹센터" data-node-context="센터 간 물류 흐름">
          <title>PPC · 피킹패킹센터 · 센터 간 물류 흐름</title>
          <rect x="331.2" y="93" width="92" height="52" rx="6" class="c-mask"/>
          <rect x="331.2" y="93" width="92" height="52" rx="6" class="c-backend" stroke-width="1.5"/>
          <g aria-hidden="true" data-semantic-sigil="backend" class="semantic-sigil s-backend" transform="translate(337.2 99) scale(0.6875)">
            <path d="M6 3 3 8l3 5M10 3l3 5-3 5"/>
          </g>
          <text data-node-label="" data-detail-anchor="" x="377.2" y="114" class="t-primary" font-size="11" font-weight="600" text-anchor="middle">PPC</text>
          <text data-detail="context" x="377.2" y="131" class="t-muted" font-size="8" text-anchor="middle">피킹패킹센터</text>
        </g>

        <g id="node-customer" data-node-id="customer" data-node-label="고객" tabindex="0" role="button" aria-label="Focus 고객, 센터 간 물류 흐름" aria-pressed="false" data-node-kind="external" data-node-context="센터 간 물류 흐름">
          <title>고객 · 센터 간 물류 흐름</title>
          <rect x="484.4" y="93" width="92" height="52" rx="6" class="c-mask"/>
          <rect x="484.4" y="93" width="92" height="52" rx="6" class="c-external" stroke-width="1.5"/>
          <g aria-hidden="true" data-semantic-sigil="external" class="semantic-sigil s-external" transform="translate(490.4 99) scale(0.6875)">
            <rect x="2.5" y="5" width="8.5" height="8" rx="1.5"/>
            <path d="M8 2.5h5.5V8M13.5 2.5 7.5 8.5"/>
          </g>
          <text data-node-label="" x="530.4" y="114" class="t-primary" font-size="11" font-weight="600" text-anchor="middle">고객</text>
        </g>

        <!-- Edge labels -->
        <g data-detail="context" data-edge-from="dc" data-edge-to="ppc" data-edge-label="재고 이관" data-edge-key="0">
          <rect x="274" y="99" width="53.199999999999996" height="14" rx="3" class="c-mask"/>
          <text x="300.6" y="109" class="t-backend" font-size="8" text-anchor="middle">재고 이관</text>
        </g>
        <g data-detail="context" data-edge-from="ppc" data-edge-to="customer" data-edge-label="주문 출고" data-edge-key="1">
          <rect x="427.19999999999993" y="99" width="53.199999999999996" height="14" rx="3" class="c-mask"/>
          <text x="453.79999999999995" y="109" class="t-muted" font-size="8" text-anchor="middle">주문 출고</text>
        </g>
        <g data-detail="context" data-edge-from="supplier" data-edge-to="dc" data-edge-label="입고" data-edge-key="2">
          <rect x="144" y="99" width="30" height="14" rx="3" class="c-mask"/>
          <text x="159" y="109" class="t-muted" font-size="8" text-anchor="middle">입고</text>
        </g>

        <!-- Legend -->
        <g data-legend="" data-legend-bridge="">
          <text x="20" y="180" class="t-primary" font-size="12" font-weight="650">Legend</text>
          <g data-legend-semantic-kind="backend" data-legend-kind="backend" data-legend-label="Agent logic" data-legend-x="20" data-legend-baseline="200" data-legend-width="91">
            <rect x="20" y="192" width="14" height="9" rx="2" class="c-backend" stroke-width="1"/>
            <text x="42" y="200" class="t-muted" font-size="7.5" font-weight="500">Agent logic</text>
          </g>
          <g data-legend-semantic-kind="database" data-legend-kind="database" data-legend-label="Context / trace" data-legend-x="118" data-legend-baseline="200" data-legend-width="109">
            <rect x="118" y="192" width="14" height="9" rx="2" class="c-database" stroke-width="1"/>
            <text x="140" y="200" class="t-muted" font-size="7.5" font-weight="500">Context / trace</text>
          </g>
          <g data-legend-semantic-kind="external" data-legend-kind="external" data-legend-label="External system" data-legend-x="234" data-legend-baseline="200" data-legend-width="109">
            <rect x="234" y="192" width="14" height="9" rx="2" class="c-external" stroke-width="1"/>
            <text x="256" y="200" class="t-muted" font-size="7.5" font-weight="500">External system</text>
          </g>
        </g>
      </svg>
