<?xml version="1.0" encoding="UTF-8"?>
<svg viewBox="0 0 780 404" role="img" lang="en" aria-labelledby="archify-diagram-title archify-diagram-description" data-preset="classic" data-quality-profile="showcase">
        <title id="archify-diagram-title">요청서 단위 락과 SKU 병렬 요청의 충돌</title>
        <desc id="archify-diagram-description">A workflow diagram generated by Archify.</desc>
        <!-- Definitions -->
        <defs>
          <marker id="arrowhead" markerWidth="10" markerHeight="7" refX="9" refY="3.5" orient="auto">
            <polygon points="0 0, 10 3.5, 0 7" class="m-default" />
          </marker>
          <marker id="arrowhead-emphasis" markerWidth="10" markerHeight="7" refX="9" refY="3.5" orient="auto">
            <polygon points="0 0, 10 3.5, 0 7" class="m-emphasis" />
          </marker>
          <marker id="arrowhead-security" markerWidth="10" markerHeight="7" refX="9" refY="3.5" orient="auto">
            <polygon points="0 0, 10 3.5, 0 7" class="m-security" />
          </marker>
          <marker id="arrowhead-dashed" markerWidth="10" markerHeight="7" refX="9" refY="3.5" orient="auto">
            <polygon points="0 0, 10 3.5, 0 7" class="m-dashed" />
          </marker>
          <pattern id="grid" width="40" height="40" patternUnits="userSpaceOnUse">
            <path d="M 40 0 L 0 0 0 40" class="c-grid" stroke-width="0.5"/>
          </pattern>
        </defs>

        <!-- Background Grid -->
        <rect width="100%" height="100%" fill="url(#grid)" />

        <!-- Swimlanes -->
        <rect data-graph-role="structural-frame" data-composition-frame-kind="lane" data-composition-frame-id="lane-0" x="40" y="52" width="724" height="104" rx="10" class="c-lane" stroke-width="1"/>
        <text x="54" y="74" class="t-dim" font-size="10" font-weight="600">01 / 할당 요청</text>

        <rect data-graph-role="structural-frame" data-composition-frame-kind="lane" data-composition-frame-id="lane-1" x="40" y="176" width="724" height="104" rx="10" class="c-lane" stroke-width="1"/>
        <text x="54" y="198" class="t-dim" font-size="10" font-weight="600">02 / SKU별 결과</text>

        <!-- Phase headers -->


        <!-- Workflow groups -->


        <!-- Edge paths -->
        <path data-edge-from="request_001" data-edge-to="sku_a" data-edge-key="0" data-composition-points="164,119;226,119;226,217" d="M 164 119 L 226 119 L 226 217" class="a-emphasis" stroke-width="1.8" marker-end="url(#arrowhead-emphasis)"/>
        <path data-edge-from="request_001" data-edge-to="sku_b" data-edge-key="1" data-composition-points="164,112;346,112;346,217" d="M 164 112 L 346 112 L 346 217" class="a-security" stroke-width="1.4" marker-end="url(#arrowhead-security)"/>
        <path data-edge-from="request_001" data-edge-to="sku_c" data-edge-key="2" data-composition-points="164,126;466,126;466,217" d="M 164 126 L 466 126 L 466 217" class="a-security" stroke-width="1.4" marker-end="url(#arrowhead-security)"/>

        <!-- Nodes -->
        <g id="node-request_001" data-node-id="request_001" data-node-label="이관 요청서 001" tabindex="0" role="button" aria-label="Focus 이관 요청서 001, 세 SKU를 동시에 할당, 할당 요청" aria-pressed="false" data-node-kind="backend" data-node-sublabel="세 SKU를 동시에 할당" data-node-context="할당 요청">
          <title>이관 요청서 001 · 세 SKU를 동시에 할당 · 할당 요청</title>
          <rect x="48" y="93" width="116" height="52" rx="6" class="c-mask"/>
          <rect x="48" y="93" width="116" height="52" rx="6" class="c-backend" stroke-width="1.5"/>
          <g aria-hidden="true" data-semantic-sigil="backend" class="semantic-sigil s-backend" transform="translate(54 99) scale(0.6875)">
            <path d="M6 3 3 8l3 5M10 3l3 5-3 5"/>
          </g>
          <text data-node-label="" data-detail-anchor="" x="106" y="114" class="t-primary" font-size="11" font-weight="600" text-anchor="middle">이관 요청서 001</text>
          <text data-detail="context" x="106" y="131" class="t-muted" font-size="8" text-anchor="middle">세 SKU를 동시에 할당</text>
        </g>

        <g id="node-sku_a" data-node-id="sku_a" data-node-label="SKU A" tabindex="0" role="button" aria-label="Focus SKU A, 락 획득 성공, SKU별 결과" aria-pressed="false" data-node-kind="backend" data-node-sublabel="락 획득 성공" data-node-context="SKU별 결과">
          <title>SKU A · 락 획득 성공 · SKU별 결과</title>
          <rect x="180" y="217" width="92" height="52" rx="6" class="c-mask"/>
          <rect x="180" y="217" width="92" height="52" rx="6" class="c-backend" stroke-width="1.5"/>
          <g aria-hidden="true" data-semantic-sigil="backend" class="semantic-sigil s-backend" transform="translate(186 223) scale(0.6875)">
            <path d="M6 3 3 8l3 5M10 3l3 5-3 5"/>
          </g>
          <text data-node-label="" data-detail-anchor="" x="226" y="238" class="t-primary" font-size="11" font-weight="600" text-anchor="middle">SKU A</text>
          <text data-detail="context" x="226" y="255" class="t-muted" font-size="8" text-anchor="middle">락 획득 성공</text>
        </g>

        <g id="node-sku_b" data-node-id="sku_b" data-node-label="SKU B" tabindex="0" role="button" aria-label="Focus SKU B, 락 획득 실패, SKU별 결과" aria-pressed="false" data-node-kind="security" data-node-sublabel="락 획득 실패" data-node-context="SKU별 결과">
          <title>SKU B · 락 획득 실패 · SKU별 결과</title>
          <rect x="300" y="217" width="92" height="52" rx="6" class="c-mask"/>
          <rect x="300" y="217" width="92" height="52" rx="6" class="c-security" stroke-width="1.5"/>
          <g aria-hidden="true" data-semantic-sigil="security" class="semantic-sigil s-security" transform="translate(306 223) scale(0.6875)">
            <path d="M8 2.2 13 4v3.5c0 3.1-1.8 5.4-5 6.5-3.2-1.1-5-3.4-5-6.5V4Z"/>
            <path d="m5.8 8 1.5 1.5 3-3"/>
          </g>
          <text data-node-label="" data-detail-anchor="" x="346" y="238" class="t-primary" font-size="11" font-weight="600" text-anchor="middle">SKU B</text>
          <text data-detail="context" x="346" y="255" class="t-muted" font-size="8" text-anchor="middle">락 획득 실패</text>
        </g>

        <g id="node-sku_c" data-node-id="sku_c" data-node-label="SKU C" tabindex="0" role="button" aria-label="Focus SKU C, 락 획득 실패, SKU별 결과" aria-pressed="false" data-node-kind="security" data-node-sublabel="락 획득 실패" data-node-context="SKU별 결과">
          <title>SKU C · 락 획득 실패 · SKU별 결과</title>
          <rect x="420" y="217" width="92" height="52" rx="6" class="c-mask"/>
          <rect x="420" y="217" width="92" height="52" rx="6" class="c-security" stroke-width="1.5"/>
          <g aria-hidden="true" data-semantic-sigil="security" class="semantic-sigil s-security" transform="translate(426 223) scale(0.6875)">
            <path d="M8 2.2 13 4v3.5c0 3.1-1.8 5.4-5 6.5-3.2-1.1-5-3.4-5-6.5V4Z"/>
            <path d="m5.8 8 1.5 1.5 3-3"/>
          </g>
          <text data-node-label="" data-detail-anchor="" x="466" y="238" class="t-primary" font-size="11" font-weight="600" text-anchor="middle">SKU C</text>
          <text data-detail="context" x="466" y="255" class="t-muted" font-size="8" text-anchor="middle">락 획득 실패</text>
        </g>

        <!-- Edge labels -->




        <!-- Legend -->
        <g data-legend="" data-legend-bridge="">
          <text x="20" y="304" class="t-primary" font-size="12" font-weight="650">Legend</text>
          <g data-legend-semantic-kind="backend" data-legend-kind="backend" data-legend-label="Agent logic" data-legend-x="20" data-legend-baseline="324" data-legend-width="91">
            <rect x="20" y="316" width="14" height="9" rx="2" class="c-backend" stroke-width="1"/>
            <text x="42" y="324" class="t-muted" font-size="7.5" font-weight="500">Agent logic</text>
          </g>
          <g data-legend-semantic-kind="security" data-legend-kind="security" data-legend-label="Policy" data-legend-x="118" data-legend-baseline="324" data-legend-width="70">
            <rect x="118" y="316" width="14" height="9" rx="2" class="c-security" stroke-width="1"/>
            <text x="140" y="324" class="t-muted" font-size="7.5" font-weight="500">Policy</text>
          </g>
        </g>
      </svg>
