<svg xmlns="http://www.w3.org/2000/svg" width="740" height="1400" viewBox="0 0 740 1400" role="img" font-family="-apple-system,BlinkMacSystemFont,'Apple SD Gothic Neo',Pretendard,'Malgun Gothic',system-ui,sans-serif"><title>WMS 주요 프로세스 — 공급처 입고부터 고객 출고까지의 창고 흐름</title><defs><marker id="a334155" markerWidth="8" markerHeight="8" refX="7.2" refY="4" orient="auto" markerUnits="strokeWidth"><path d="M0,0.6 L7.6,4 L0,7.4 z" fill="#334155"/></marker><marker id="a6b7280" markerWidth="8" markerHeight="8" refX="7.2" refY="4" orient="auto" markerUnits="strokeWidth"><path d="M0,0.6 L7.6,4 L0,7.4 z" fill="#6b7280"/></marker></defs><rect x="0.5" y="0.5" width="739" height="1399" rx="10" ry="10" fill="#fbfbf9" stroke="#e4e7e0"/><text x="370.0" y="40.0" font-size="19" font-weight="700" fill="#1f2937" text-anchor="middle">WMS 주요 프로세스</text><text x="370.0" y="62.0" font-size="13" font-weight="400" fill="#6b7280" text-anchor="middle">실선은 재고의 물리적 이동, 점선은 출고 주문의 정보 흐름</text><rect x="30.0" y="160.0" width="680.0" height="1110.0" rx="16" ry="16" fill="none" stroke="#a9b0a4" stroke-width="1.6" stroke-dasharray="7 6"/><rect x="48.0" y="147.0" width="47.0" height="26.0" rx="13" ry="13" fill="#fbfbf9" stroke="#6b7280" stroke-width="1.4"/><text x="71.5" y="164.5" font-size="12.5" font-weight="700" fill="#6b7280" text-anchor="middle">창고</text><rect x="245.0" y="362.0" width="250.0" height="298.0" rx="16" ry="16" fill="#eef6f1" stroke="#2f6b46" stroke-width="1.6"/><rect x="308.2" y="349.0" width="123.5" height="26.0" rx="13" ry="13" fill="#fbfbf9" stroke="#2f6b46" stroke-width="1.4"/><text x="370.0" y="366.5" font-size="12.5" font-weight="700" fill="#2f6b46" text-anchor="middle">보관존(가용재고)</text><path d="M175.0,138.0 L175.0,210.0 L365.0,210.0 L365.0,212.0" fill="none" stroke="#334155" stroke-width="2.2" stroke-linejoin="round" stroke-linecap="round" marker-end="url(#a334155)"/><path d="M370.0,315.0 L370.0,386.0" fill="none" stroke="#334155" stroke-width="2.2" stroke-linejoin="round" stroke-linecap="round" marker-end="url(#a334155)"/><path d="M370.0,452.0 L370.0,534.0" fill="none" stroke="#334155" stroke-width="2.2" stroke-linejoin="round" stroke-linecap="round" marker-end="url(#a334155)"/><path d="M476.0,570.0 L520.0,570.0 L520.0,704.0" fill="none" stroke="#334155" stroke-width="2.2" stroke-linejoin="round" stroke-linecap="round" marker-end="url(#a334155)"/><path d="M264.0,566.0 L225.0,566.0 L225.0,475.0 L216.0,475.0" fill="none" stroke="#334155" stroke-width="2.2" stroke-linejoin="round" stroke-linecap="round" marker-end="url(#a334155)"/><path d="M216.0,491.0 L232.0,491.0 L232.0,590.0 L264.0,590.0" fill="none" stroke="#334155" stroke-width="2.2" stroke-linejoin="round" stroke-linecap="round" marker-end="url(#a334155)"/><path d="M370.0,600.0 L370.0,1034.0" fill="none" stroke="#334155" stroke-width="2.2" stroke-linejoin="round" stroke-linecap="round" marker-end="url(#a334155)"/><path d="M585.0,770.0 L585.0,1000.0 L470.0,1000.0 L470.0,1034.0" fill="none" stroke="#334155" stroke-width="2.2" stroke-linejoin="round" stroke-linecap="round" marker-end="url(#a334155)"/><path d="M239.0,270.0 L225.0,270.0 L225.0,881.0 L221.0,881.0" fill="none" stroke="#334155" stroke-width="2.2" stroke-linejoin="round" stroke-linecap="round" marker-end="url(#a334155)"/><path d="M221.0,872.0 L232.0,872.0 L232.0,1015.0 L300.0,1015.0 L300.0,1034.0" fill="none" stroke="#334155" stroke-width="2.2" stroke-linejoin="round" stroke-linecap="round" marker-end="url(#a334155)"/><path d="M370.0,1100.0 L370.0,1284.0" fill="none" stroke="#334155" stroke-width="2.2" stroke-linejoin="round" stroke-linecap="round" marker-end="url(#a334155)"/><path d="M565.0,138.0 L565.0,180.0 L675.0,180.0 L675.0,680.0 L620.0,680.0 L620.0,704.0" fill="none" stroke="#6b7280" stroke-width="2.2" stroke-linejoin="round" stroke-linecap="round" marker-end="url(#a6b7280)" stroke-dasharray="7 5"/><path d="M550.0,138.0 L550.0,195.0 L650.0,195.0 L650.0,510.0 L501.0,510.0 L501.0,570.0" fill="none" stroke="#6b7280" stroke-width="2.2" stroke-linejoin="round" stroke-linecap="round" marker-end="url(#a6b7280)" stroke-dasharray="7 5"/><rect x="50.0" y="78.0" width="250.0" height="54.0" rx="12" ry="12" fill="#ffffff" stroke="#475569" stroke-width="2"/><rect x="60.0" y="88.0" width="230.0" height="32.0" rx="8" ry="8" fill="#475569"/><text x="175.0" y="110.0" font-size="17" font-weight="700" fill="#ffffff" text-anchor="middle">공급처 · 공장</text><rect x="440.0" y="78.0" width="250.0" height="54.0" rx="12" ry="12" fill="#ffffff" stroke="#475569" stroke-width="2"/><rect x="450.0" y="88.0" width="230.0" height="32.0" rx="8" ry="8" fill="#475569"/><text x="565.0" y="110.0" font-size="17" font-weight="700" fill="#ffffff" text-anchor="middle">출고 주문</text><rect x="245.0" y="218.0" width="250.0" height="83.0" rx="12" ry="12" fill="#ffffff" stroke="#8a6a1c" stroke-width="2"/><rect x="255.0" y="228.0" width="230.0" height="32.0" rx="8" ry="8" fill="#8a6a1c"/><text x="370.0" y="250.0" font-size="17" font-weight="700" fill="#ffffff" text-anchor="middle">입고존</text><text x="370.0" y="284.0" font-size="13.5" font-weight="400" fill="#4b5563" text-anchor="middle">임시 보관(가용재고 아님)</text><rect x="270.0" y="392.0" width="200.0" height="54.0" rx="12" ry="12" fill="#ffffff" stroke="#2f6b46" stroke-width="2"/><rect x="280.0" y="402.0" width="180.0" height="32.0" rx="8" ry="8" fill="#2f6b46"/><text x="370.0" y="424.0" font-size="15" font-weight="700" fill="#ffffff" text-anchor="middle">최초 보관 로케이션</text><rect x="270.0" y="540.0" width="200.0" height="54.0" rx="12" ry="12" fill="#ffffff" stroke="#2f6b46" stroke-width="2"/><rect x="280.0" y="550.0" width="180.0" height="32.0" rx="8" ry="8" fill="#2f6b46"/><text x="370.0" y="572.0" font-size="15" font-weight="700" fill="#ffffff" text-anchor="middle">다른 로케이션</text><rect x="50.0" y="448.0" width="160.0" height="54.0" rx="12" ry="12" fill="#ffffff" stroke="#8a6a1c" stroke-width="2"/><rect x="60.0" y="458.0" width="140.0" height="32.0" rx="8" ry="8" fill="#8a6a1c"/><text x="130.0" y="480.0" font-size="17" font-weight="700" fill="#ffffff" text-anchor="middle">작업존</text><rect x="460.0" y="710.0" width="250.0" height="54.0" rx="12" ry="12" fill="#ffffff" stroke="#8a6a1c" stroke-width="2"/><rect x="470.0" y="720.0" width="230.0" height="32.0" rx="8" ry="8" fill="#8a6a1c"/><text x="585.0" y="742.0" font-size="17" font-weight="700" fill="#ffffff" text-anchor="middle">피킹존</text><rect x="50.0" y="845.0" width="165.0" height="54.0" rx="12" ry="12" fill="#ffffff" stroke="#8a6a1c" stroke-width="2"/><rect x="60.0" y="855.0" width="145.0" height="32.0" rx="8" ry="8" fill="#8a6a1c"/><text x="132.5" y="877.0" font-size="17" font-weight="700" fill="#ffffff" text-anchor="middle">분배존</text><rect x="245.0" y="1040.0" width="250.0" height="54.0" rx="12" ry="12" fill="#ffffff" stroke="#8a6a1c" stroke-width="2"/><rect x="255.0" y="1050.0" width="230.0" height="32.0" rx="8" ry="8" fill="#8a6a1c"/><text x="370.0" y="1072.0" font-size="17" font-weight="700" fill="#ffffff" text-anchor="middle">출고존</text><rect x="245.0" y="1290.0" width="250.0" height="54.0" rx="12" ry="12" fill="#ffffff" stroke="#475569" stroke-width="2"/><rect x="255.0" y="1300.0" width="230.0" height="32.0" rx="8" ry="8" fill="#475569"/><text x="370.0" y="1322.0" font-size="17" font-weight="700" fill="#ffffff" text-anchor="middle">출고처 · 고객</text><rect x="238.4" y="172.0" width="63.2" height="24.0" rx="12.0" ry="12.0" fill="#ffffff" stroke="#334155" stroke-width="1.4"/><text x="270.0" y="188.5" font-size="12.5" font-weight="700" fill="#334155" text-anchor="middle">① 입고</text><rect x="338.4" y="314.0" width="63.2" height="24.0" rx="12.0" ry="12.0" fill="#ffffff" stroke="#334155" stroke-width="1.4"/><text x="370.0" y="330.5" font-size="12.5" font-weight="700" fill="#334155" text-anchor="middle">② 적치</text><rect x="325.9" y="490.0" width="88.2" height="24.0" rx="12.0" ry="12.0" fill="#ffffff" stroke="#334155" stroke-width="1.4"/><text x="370.0" y="506.5" font-size="12.5" font-weight="700" fill="#334155" text-anchor="middle">③ 재고이동</text><rect x="454.5" y="608.0" width="131.0" height="24.0" rx="12.0" ry="12.0" fill="#ffffff" stroke="#334155" stroke-width="1.4"/><text x="520.0" y="624.5" font-size="12.5" font-weight="700" fill="#334155" text-anchor="middle">④ 재고보충 (선택)</text><rect x="180.9" y="523.0" width="88.2" height="24.0" rx="12.0" ry="12.0" fill="#ffffff" stroke="#334155" stroke-width="1.4"/><text x="225.0" y="539.5" font-size="12.5" font-weight="700" fill="#334155" text-anchor="middle">⑨ 유통가공</text><rect x="194.1" y="603.0" width="75.8" height="24.0" rx="12.0" ry="12.0" fill="#ffffff" stroke="#334155" stroke-width="1.4"/><text x="232.0" y="619.5" font-size="12.5" font-weight="700" fill="#334155" text-anchor="middle">가공 완료</text><rect x="566.4" y="658.0" width="147.2" height="24.0" rx="12.0" ry="12.0" fill="#ffffff" stroke="#6b7280" stroke-width="1.4"/><text x="640.0" y="674.5" font-size="12.5" font-weight="700" fill="#6b7280" text-anchor="middle">⑤ 할당 (피킹존 운영)</text><rect x="507.6" y="498.0" width="134.8" height="24.0" rx="12.0" ry="12.0" fill="#ffffff" stroke="#6b7280" stroke-width="1.4"/><text x="575.0" y="514.5" font-size="12.5" font-weight="700" fill="#6b7280" text-anchor="middle">⑤ 할당 (직접 피킹)</text><rect x="324.0" y="828.0" width="92.0" height="24.0" rx="12.0" ry="12.0" fill="#ffffff" stroke="#334155" stroke-width="1.4"/><text x="370.0" y="844.5" font-size="12.5" font-weight="700" fill="#334155" text-anchor="middle">⑥ 직접 피킹</text><rect x="553.4" y="883.0" width="63.2" height="24.0" rx="12.0" ry="12.0" fill="#ffffff" stroke="#334155" stroke-width="1.4"/><text x="585.0" y="899.5" font-size="12.5" font-weight="700" fill="#334155" text-anchor="middle">⑥ 피킹</text><rect x="174.6" y="718.0" width="100.8" height="24.0" rx="12.0" ry="12.0" fill="#ffffff" stroke="#334155" stroke-width="1.4"/><text x="225.0" y="734.5" font-size="12.5" font-weight="700" fill="#334155" text-anchor="middle">⑪ 크로스도킹</text><rect x="232.1" y="938.0" width="75.8" height="24.0" rx="12.0" ry="12.0" fill="#ffffff" stroke="#334155" stroke-width="1.4"/><text x="270.0" y="954.5" font-size="12.5" font-weight="700" fill="#334155" text-anchor="middle">바로 출고</text><rect x="338.4" y="1188.0" width="63.2" height="24.0" rx="12.0" ry="12.0" fill="#ffffff" stroke="#334155" stroke-width="1.4"/><text x="370.0" y="1204.5" font-size="12.5" font-weight="700" fill="#334155" text-anchor="middle">⑦ 출고</text><path d="M40,1376 L70,1376" stroke="#334155" stroke-width="2.2" stroke-linecap="round"/><text x="78.0" y="1380.5" font-size="12.5" font-weight="600" fill="#6b7280" text-anchor="start">재고의 물리적 이동</text><path d="M211.5,1376 L241.5,1376" stroke="#6b7280" stroke-width="2.2" stroke-linecap="round" stroke-dasharray="7 5"/><text x="249.5" y="1380.5" font-size="12.5" font-weight="600" fill="#6b7280" text-anchor="start">정보 흐름</text></svg>