<svg xmlns="http://www.w3.org/2000/svg" width="660" height="650" viewBox="0 0 660 650" role="img" font-family="-apple-system,BlinkMacSystemFont,'Apple SD Gothic Neo',Pretendard,'Malgun Gothic',system-ui,sans-serif"><title>재고이동 작업 — WMS 또는 관리자의 지시와 작업자의 실행</title><defs><marker id="a6b7280" markerWidth="8" markerHeight="8" refX="7.2" refY="4" orient="auto" markerUnits="strokeWidth"><path d="M0,0.6 L7.6,4 L0,7.4 z" fill="#6b7280"/></marker><marker id="a334155" markerWidth="8" markerHeight="8" refX="7.2" refY="4" orient="auto" markerUnits="strokeWidth"><path d="M0,0.6 L7.6,4 L0,7.4 z" fill="#334155"/></marker></defs><rect x="0.5" y="0.5" width="659" height="649" rx="10" ry="10" fill="#fbfbf9" stroke="#e4e7e0"/><text x="330.0" y="40.0" font-size="19" font-weight="700" fill="#1f2937" text-anchor="middle">재고이동 작업</text><text x="330.0" y="62.0" font-size="13" font-weight="400" fill="#6b7280" text-anchor="middle">이동지시는 정보로 전달되고, 실제 재고는 로케이션 사이를 이동</text><path d="M245.0,187.0 L245.0,274.0 L290.0,274.0" fill="none" stroke="#6b7280" stroke-width="2.2" stroke-linejoin="round" stroke-linecap="round" marker-end="url(#a6b7280)" stroke-dasharray="7 5"/><path d="M495.0,187.0 L495.0,274.0 L370.0,274.0" fill="none" stroke="#6b7280" stroke-width="2.2" stroke-linejoin="round" stroke-linecap="round" marker-end="url(#a6b7280)" stroke-dasharray="7 5"/><path d="M199.0,307.0 L20.0,307.0 L20.0,125.0 L34.0,125.0" fill="none" stroke="#6b7280" stroke-width="2.2" stroke-linejoin="round" stroke-linecap="round" marker-end="url(#a6b7280)" stroke-dasharray="7 5"/><path d="M266.0,446.0 L394.0,446.0" fill="none" stroke="#334155" stroke-width="2.2" stroke-linejoin="round" stroke-linecap="round" marker-end="url(#a334155)"/><rect x="40.0" y="90.0" width="250.0" height="83.0" rx="12" ry="12" fill="#ffffff" stroke="#2f6b46" stroke-width="2"/><rect x="50.0" y="100.0" width="230.0" height="32.0" rx="8" ry="8" fill="#2f6b46"/><text x="165.0" y="122.0" font-size="20" font-weight="700" fill="#ffffff" text-anchor="middle">WMS</text><text x="165.0" y="156.0" font-size="13.5" font-weight="400" fill="#4b5563" text-anchor="middle">작업 효율 판단</text><rect x="370.0" y="90.0" width="250.0" height="83.0" rx="12" ry="12" fill="#ffffff" stroke="#475569" stroke-width="2"/><rect x="380.0" y="100.0" width="230.0" height="32.0" rx="8" ry="8" fill="#475569"/><text x="495.0" y="122.0" font-size="17" font-weight="700" fill="#ffffff" text-anchor="middle">관리자</text><text x="495.0" y="156.0" font-size="13.5" font-weight="400" fill="#4b5563" text-anchor="middle">관리 목적 지시</text><rect x="205.0" y="280.0" width="250.0" height="54.0" rx="12" ry="12" fill="#ffffff" stroke="#475569" stroke-width="2"/><rect x="215.0" y="290.0" width="230.0" height="32.0" rx="8" ry="8" fill="#475569"/><text x="330.0" y="312.0" font-size="17" font-weight="700" fill="#ffffff" text-anchor="middle">작업자</text><rect x="50.0" y="410.0" width="210.0" height="54.0" rx="12" ry="12" fill="#ffffff" stroke="#8a6a1c" stroke-width="2"/><rect x="60.0" y="420.0" width="190.0" height="32.0" rx="8" ry="8" fill="#8a6a1c"/><text x="155.0" y="442.0" font-size="17" font-weight="700" fill="#ffffff" text-anchor="middle">로케이션 A</text><rect x="400.0" y="410.0" width="210.0" height="54.0" rx="12" ry="12" fill="#ffffff" stroke="#8a6a1c" stroke-width="2"/><rect x="410.0" y="420.0" width="190.0" height="32.0" rx="8" ry="8" fill="#8a6a1c"/><text x="505.0" y="442.0" font-size="17" font-weight="700" fill="#ffffff" text-anchor="middle">로케이션 B</text><rect x="194.6" y="213.0" width="100.8" height="24.0" rx="12.0" ry="12.0" fill="#ffffff" stroke="#6b7280" stroke-width="1.4"/><text x="245.0" y="229.5" font-size="12.5" font-weight="700" fill="#6b7280" text-anchor="middle">이동지시 생성</text><rect x="439.6" y="213.0" width="100.8" height="24.0" rx="12.0" ry="12.0" fill="#ffffff" stroke="#6b7280" stroke-width="1.4"/><text x="490.0" y="229.5" font-size="12.5" font-weight="700" fill="#6b7280" text-anchor="middle">이동지시 생성</text><rect x="25.2" y="295.0" width="149.5" height="24.0" rx="12.0" ry="12.0" fill="#ffffff" stroke="#6b7280" stroke-width="1.4"/><text x="100.0" y="311.5" font-size="12.5" font-weight="700" fill="#6b7280" text-anchor="middle">작업 결과 입력 → 완료</text><rect x="285.9" y="434.0" width="88.2" height="24.0" rx="12.0" ry="12.0" fill="#ffffff" stroke="#334155" stroke-width="1.4"/><text x="330.0" y="450.5" font-size="12.5" font-weight="700" fill="#334155" text-anchor="middle">실재고 이동</text><path d="M40,626 L70,626" stroke="#334155" stroke-width="2.2" stroke-linecap="round"/><text x="78.0" y="630.5" font-size="12.5" font-weight="600" fill="#6b7280" text-anchor="start">재고의 물리적 이동</text><path d="M211.5,626 L241.5,626" stroke="#6b7280" stroke-width="2.2" stroke-linecap="round" stroke-dasharray="7 5"/><text x="249.5" y="630.5" font-size="12.5" font-weight="600" fill="#6b7280" text-anchor="start">정보 흐름</text></svg>