<svg xmlns="http://www.w3.org/2000/svg" width="700" height="830" viewBox="0 0 700 830" role="img" font-family="-apple-system,BlinkMacSystemFont,'Apple SD Gothic Neo',Pretendard,'Malgun Gothic',system-ui,sans-serif"><title>피킹과 출고 — 출고존 인수인계와 출고전표 증빙 흐름</title><defs><marker id="a334155" markerWidth="8" markerHeight="8" refX="7.2" refY="4" orient="auto" markerUnits="strokeWidth"><path d="M0,0.6 L7.6,4 L0,7.4 z" fill="#334155"/></marker><marker id="a6b7280" markerWidth="8" markerHeight="8" refX="7.2" refY="4" orient="auto" markerUnits="strokeWidth"><path d="M0,0.6 L7.6,4 L0,7.4 z" fill="#6b7280"/></marker></defs><rect x="0.5" y="0.5" width="699" height="829" rx="10" ry="10" fill="#fbfbf9" stroke="#e4e7e0"/><text x="350.0" y="40.0" font-size="19" font-weight="700" fill="#1f2937" text-anchor="middle">피킹과 출고</text><text x="350.0" y="62.0" font-size="13" font-weight="400" fill="#6b7280" text-anchor="middle">실선은 재고 이동, 점선은 출고전표의 출력·서명·증빙 흐름</text><path d="M270.0,162.0 L270.0,270.0" fill="none" stroke="#334155" stroke-width="2.2" stroke-linejoin="round" stroke-linecap="round" marker-end="url(#a334155)"/><path d="M270.0,361.0 L270.0,580.0" fill="none" stroke="#334155" stroke-width="2.2" stroke-linejoin="round" stroke-linecap="round" marker-end="url(#a334155)"/><path d="M420.0,315.0 L505.0,315.0 L505.0,430.0" fill="none" stroke="#6b7280" stroke-width="2.2" stroke-linejoin="round" stroke-linecap="round" marker-end="url(#a6b7280)" stroke-dasharray="7 5"/><path d="M505.0,521.0 L505.0,615.0 L420.0,615.0" fill="none" stroke="#6b7280" stroke-width="2.2" stroke-linejoin="round" stroke-linecap="round" marker-end="url(#a6b7280)" stroke-dasharray="7 5"/><rect x="120.0" y="90.0" width="300.0" height="54.0" rx="12" ry="12" fill="#ffffff" stroke="#8a6a1c" stroke-width="2"/><rect x="130.0" y="100.0" width="280.0" height="32.0" rx="8" ry="8" fill="#8a6a1c"/><text x="270.0" y="122.0" font-size="17" font-weight="700" fill="#ffffff" text-anchor="middle">피킹존</text><rect x="120.0" y="270.0" width="300.0" height="83.0" rx="12" ry="12" fill="#ffffff" stroke="#2f6b46" stroke-width="2"/><rect x="130.0" y="280.0" width="280.0" height="32.0" rx="8" ry="8" fill="#2f6b46"/><text x="270.0" y="302.0" font-size="17" font-weight="700" fill="#ffffff" text-anchor="middle">출고존</text><text x="270.0" y="336.0" font-size="13.5" font-weight="400" fill="#4b5563" text-anchor="middle">출고 시 재고 차감</text><rect x="460.0" y="430.0" width="210.0" height="83.0" rx="12" ry="12" fill="#ffffff" stroke="#8a6a1c" stroke-width="2"/><rect x="470.0" y="440.0" width="190.0" height="32.0" rx="8" ry="8" fill="#8a6a1c"/><text x="565.0" y="462.0" font-size="15" font-weight="700" fill="#ffffff" text-anchor="middle">출고전표</text><text x="565.0" y="496.0" font-size="13.5" font-weight="400" fill="#4b5563" text-anchor="middle">거래명세서 · 송장</text><rect x="120.0" y="580.0" width="300.0" height="83.0" rx="12" ry="12" fill="#ffffff" stroke="#475569" stroke-width="2"/><rect x="130.0" y="590.0" width="280.0" height="32.0" rx="8" ry="8" fill="#475569"/><text x="270.0" y="612.0" font-size="17" font-weight="700" fill="#ffffff" text-anchor="middle">출고처 · 고객</text><text x="270.0" y="646.0" font-size="13.5" font-weight="400" fill="#4b5563" text-anchor="middle">배송 차량 상차</text><rect x="238.4" y="203.0" width="63.2" height="24.0" rx="12.0" ry="12.0" fill="#ffffff" stroke="#334155" stroke-width="1.4"/><text x="270.0" y="219.5" font-size="12.5" font-weight="700" fill="#334155" text-anchor="middle">⑥ 피킹</text><rect x="206.1" y="458.0" width="127.8" height="24.0" rx="12.0" ry="12.0" fill="#ffffff" stroke="#334155" stroke-width="1.4"/><text x="270.0" y="474.5" font-size="12.5" font-weight="700" fill="#334155" text-anchor="middle">⑦ 출고 · 인수인계</text><rect x="459.0" y="358.0" width="92.0" height="24.0" rx="12.0" ry="12.0" fill="#ffffff" stroke="#6b7280" stroke-width="1.4"/><text x="505.0" y="374.5" font-size="12.5" font-weight="700" fill="#6b7280" text-anchor="middle">출력 → 사인</text><rect x="444.6" y="558.0" width="120.8" height="24.0" rx="12.0" ry="12.0" fill="#ffffff" stroke="#6b7280" stroke-width="1.4"/><text x="505.0" y="574.5" font-size="12.5" font-weight="700" fill="#6b7280" text-anchor="middle">사인 → 상호 증빙</text><path d="M40,806 L70,806" stroke="#334155" stroke-width="2.2" stroke-linecap="round"/><text x="78.0" y="810.5" font-size="12.5" font-weight="600" fill="#6b7280" text-anchor="start">재고의 물리적 이동</text><path d="M211.5,806 L241.5,806" stroke="#6b7280" stroke-width="2.2" stroke-linecap="round" stroke-dasharray="7 5"/><text x="249.5" y="810.5" font-size="12.5" font-weight="600" fill="#6b7280" text-anchor="start">정보 흐름</text></svg>